<?xml version="1.0" standalone="no"?>
<!DOCTYPE svg PUBLIC "-//W3C//DTD SVG 20010904//EN"
 "http://www.w3.org/TR/2001/REC-SVG-20010904/DTD/svg10.dtd">
<svg version="1.0" xmlns="http://www.w3.org/2000/svg"
 width="350.000000pt" height="350.000000pt" viewBox="0 0 350.000000 350.000000"
 preserveAspectRatio="xMidYMid meet">
<metadata>
Created by potrace 1.11, written by Peter Selinger 2001-2013
</metadata>
<g transform="translate(0.000000,350.000000) scale(0.100000,-0.100000)"
fill="#000000" stroke="none">
<path d="M1670 3464 c-25 -8 -61 -17 -80 -20 -19 -3 -38 -8 -43 -11 -4 -2 -6
1 -5 7 4 16 -41 23 -58 9 -8 -6 -14 -8 -14 -4 0 4 -10 0 -23 -8 -13 -8 -76
-32 -140 -52 -64 -20 -117 -41 -117 -46 0 -6 -4 -8 -8 -5 -12 7 -64 -49 -55
-59 5 -4 2 -5 -4 -1 -7 4 -13 3 -13 -2 0 -6 -12 -13 -27 -17 -16 -3 -38 -16
-51 -28 -13 -12 -25 -21 -28 -19 -16 9 -33 -5 -54 -45 -13 -27 -23 -51 -22
-56 1 -4 -1 -6 -5 -5 -19 5 -52 -25 -59 -54 -4 -18 -8 -35 -9 -38 -1 -3 -9
-29 -18 -59 -42 -136 -60 -268 -46 -346 24 -139 23 -163 -8 -203 -15 -20 -28
-39 -28 -42 0 -3 -3 -9 -6 -15 -12 -19 -19 -70 -21 -161 l-2 -91 48 -69 c26
-38 72 -102 102 -143 30 -41 54 -85 54 -98 0 -33 36 -100 60 -113 11 -6 20 -7
20 -3 0 14 27 -32 73 -122 46 -93 48 -99 97 -417 l10 -67 -37 -63 c-21 -35
-36 -66 -35 -70 1 -5 -3 -8 -9 -8 -6 0 -8 -8 -6 -17 3 -10 8 -34 11 -54 5 -27
17 -43 59 -74 28 -22 58 -46 65 -53 8 -6 18 -9 24 -6 7 4 8 2 4 -4 -4 -6 4
-16 16 -23 12 -7 28 -17 34 -23 34 -34 198 -150 208 -148 6 2 8 0 4 -4 -8 -7
82 -80 95 -76 4 1 7 -2 7 -6 0 -5 21 -24 48 -42 26 -19 49 -37 52 -40 20 -25
219 -168 225 -162 5 4 5 2 2 -4 -7 -12 25 -47 36 -39 4 3 5 2 2 -2 -8 -11 107
-123 126 -123 29 0 79 54 74 81 -3 24 -17 201 -18 229 0 8 -4 21 -10 28 -5 6
-7 12 -5 12 6 0 -9 66 -42 185 -21 78 -35 147 -46 233 -6 38 0 55 49 150 31
59 56 110 56 115 1 4 1 18 1 30 0 20 5 24 33 25 46 2 118 11 142 19 25 7 107
74 101 81 -3 2 -1 12 3 21 5 9 4 36 -3 63 l-12 46 30 5 c17 2 46 0 65 -5 85
-24 183 28 227 120 21 43 25 143 7 149 -7 2 -10 10 -7 17 7 18 -44 76 -66 76
-21 0 -44 -25 -35 -39 3 -6 8 -26 10 -46 9 -65 -34 -54 -117 29 l-35 35 27 20
c15 11 40 41 55 68 35 62 38 121 7 162 -12 17 -24 43 -26 58 -2 16 -9 50 -15
76 -8 33 -8 54 -1 67 10 18 6 132 -5 149 -3 5 4 34 16 64 l21 55 33 -11 c18
-5 40 -7 48 -4 22 8 32 64 15 84 -10 13 -10 17 0 20 6 3 9 10 6 15 -4 6 -2 8
3 5 6 -4 23 12 39 34 38 55 26 74 -44 73 l-50 -1 5 32 c6 37 -23 75 -56 75
-11 0 -21 9 -24 21 -4 14 -10 18 -19 13 -7 -4 -10 -4 -6 0 4 5 -4 26 -17 47
-18 27 -26 55 -27 96 l-3 58 30 -4 c17 -1 42 -9 57 -17 33 -17 68 -13 82 10 8
12 7 19 -2 25 -8 4 -13 12 -12 16 1 4 -15 17 -35 29 l-37 23 24 15 c35 24 93
78 83 78 -5 0 -4 5 3 12 7 7 8 17 1 30 -8 14 -21 18 -65 18 -74 0 -124 21
-117 49 9 35 -14 51 -72 51 -31 0 -73 8 -101 20 -26 11 -59 22 -73 23 -15 2
-32 7 -39 11 -7 4 -17 4 -24 0 -6 -4 -8 -3 -4 4 3 6 0 14 -7 19 -8 4 -20 22
-28 38 -12 26 -24 32 -79 46 -43 10 -75 13 -95 7 -47 -13 -155 -9 -209 7 -58
18 -58 18 -116 -1z"/>
</g>
</svg>
